<svg width="232" height="43" viewBox="0 0 232 43" fill="none" xmlns="http://www.w3.org/2000/svg">
<path d="M2.85 31.65C3.05 30.8167 3.83333 30.0667 5.2 29.4C6.6 28.7333 8.05 28.2 9.55 27.8C11.05 27.4 12.5 27.1667 13.9 27.1V21.45C12.9333 21.5167 11.95 21.5667 10.95 21.6C9.98333 21.6333 9.01667 21.6667 8.05 21.7C7.11667 21.7333 6.23333 21.75 5.4 21.75C4.56667 21.75 3.83333 21.75 3.2 21.75C2.4 21.75 1.7 21.6 1.1 21.3C0.533333 20.9667 0.25 20.45 0.25 19.75C0.25 19.25 0.416667 18.8833 0.75 18.65C1.11667 18.4167 1.58333 18.3 2.15 18.3C2.41667 18.3 2.78333 18.3333 3.25 18.4C3.75 18.4333 4.2 18.45 4.6 18.45C5.2 18.45 5.83333 18.45 6.5 18.45C7.16667 18.45 7.9 18.45 8.7 18.45C9.53333 18.4167 10.4667 18.3833 11.5 18.35C12.5333 18.3167 13.7167 18.2667 15.05 18.2C17.65 18.1 19.6667 18 21.1 17.9C22.5667 17.7667 23.65 17.6333 24.35 17.5C24.7833 17.4333 25.2 17.3833 25.6 17.35C26.0333 17.2833 26.5 17.25 27 17.25C27.5667 17.25 28.0333 17.4167 28.4 17.75C28.8 18.0833 29 18.4833 29 18.95C29 20.25 28.15 20.9167 26.45 20.95C26.2167 20.95 25.9167 20.95 25.55 20.95C25.1833 20.9167 24.8667 20.8667 24.6 20.8C23.4333 20.9333 22.2833 21.0333 21.15 21.1C20.0167 21.1667 18.8167 21.2333 17.55 21.3C17.6167 22.2667 17.6333 23.25 17.6 24.25C17.5667 25.2167 17.5333 26.2 17.5 27.2C18.6333 27.3333 19.7667 27.5667 20.9 27.9C22.0667 28.2333 23.1167 28.7 24.05 29.3C24.9833 29.9 25.75 30.6333 26.35 31.5C26.9833 32.3333 27.35 33.35 27.45 34.55C27.55 35.95 27.15 37.1333 26.25 38.1C25.35 39.1 24.1833 39.9 22.75 40.5C21.35 41.1 19.8 41.5167 18.1 41.75C16.4333 42.0167 14.8667 42.1167 13.4 42.05C11.5 41.9833 9.83333 41.5333 8.4 40.7C7 39.9 6.01667 38.7 5.45 37.1C5.35 36.8333 5.28333 36.4833 5.25 36.05C5.21667 35.65 5.21667 35.2167 5.25 34.75C5.31667 34.3167 5.4 33.9 5.5 33.5C5.63333 33.0667 5.83333 32.7167 6.1 32.45C5.83333 32.65 5.48333 32.8667 5.05 33.1C4.65 33.3 4.21667 33.3833 3.75 33.35C3.38333 33.3167 3.11667 33.1167 2.95 32.75C2.81667 32.3833 2.78333 32.0167 2.85 31.65ZM3.85 14.9C4.08333 14.6667 4.5 14.2833 5.1 13.75C5.7 13.1833 6.38333 12.55 7.15 11.85C7.95 11.15 8.8 10.4167 9.7 9.65C10.6 8.88333 11.4667 8.13333 12.3 7.4C13.1333 6.66667 13.8833 6.01667 14.55 5.45C15.25 4.85 15.8 4.38333 16.2 4.05C15.6 4.05 14.8333 4.05 13.9 4.05C12.9667 4.01667 12 3.98333 11 3.95C10.0333 3.91666 9.1 3.88333 8.2 3.85C7.3 3.78333 6.58333 3.73333 6.05 3.7C5.65 3.7 5.25 3.6 4.85 3.4C4.45 3.16667 4.25 2.78333 4.25 2.25C4.25 1.75 4.45 1.33333 4.85 0.999999C5.25 0.633333 5.81667 0.45 6.55 0.45C7.18333 0.45 8.05 0.466666 9.15 0.499999C10.25 0.499999 11.4 0.516666 12.6 0.549999C13.8333 0.583331 15.0167 0.616664 16.15 0.649997C17.2833 0.649997 18.1833 0.649997 18.85 0.649997C19.7833 0.649997 20.4 0.899998 20.7 1.4C20.9667 1.8 21.0833 2.13333 21.05 2.4C21.05 2.66667 20.8833 2.98333 20.55 3.35C19.95 4.11666 19.3667 4.81666 18.8 5.45C18.2333 6.05 17.55 6.78333 16.75 7.65C18.05 8.35 19.3667 9.03333 20.7 9.7C22.0333 10.3667 23.3167 11.1333 24.55 12C25.1167 12.4 25.4667 12.7333 25.6 13C25.7333 13.2667 25.8 13.55 25.8 13.85C25.8 14.25 25.6833 14.55 25.45 14.75C25.25 14.95 25.0167 15.05 24.75 15.05C24.55 15.05 24.3333 15.0167 24.1 14.95C23.8667 14.8833 23.5833 14.7833 23.25 14.65C22.75 14.45 22.0833 14.1667 21.25 13.8C20.45 13.4 19.6 12.9833 18.7 12.55C17.8333 12.0833 16.9833 11.6167 16.15 11.15C15.3167 10.6833 14.6333 10.2833 14.1 9.95C13.4333 10.55 12.85 11.0667 12.35 11.5C11.8833 11.9333 11.4 12.3833 10.9 12.85C10.4333 13.2833 9.93333 13.75 9.4 14.25C8.86667 14.75 8.23333 15.35 7.5 16.05C6.63333 16.9167 6.01667 17.4833 5.65 17.75C5.28333 17.9833 4.93333 18.1 4.6 18.1C3.93333 18.1 3.48333 18 3.25 17.8C3.01667 17.6 2.9 17.2167 2.9 16.65C2.9 16.3167 2.95 16.0333 3.05 15.8C3.18333 15.5667 3.45 15.2667 3.85 14.9ZM9.25 36.4C9.71667 37.4 10.4333 38.0833 11.4 38.45C12.4 38.8167 13.4667 38.9667 14.6 38.9C15.8667 38.8667 17.05 38.7333 18.15 38.5C19.25 38.2667 20.2 37.9667 21 37.6C21.8 37.2333 22.4333 36.8 22.9 36.3C23.3667 35.8333 23.6 35.3167 23.6 34.75C23.5667 33.9167 23.25 33.2333 22.65 32.7C22.0833 32.1333 21.3833 31.6833 20.55 31.35C19.7167 31.0167 18.8167 30.7833 17.85 30.65C16.9167 30.4833 16.0667 30.4 15.3 30.4C14.5667 30.4 13.7 30.4833 12.7 30.65C11.7 30.7833 10.8833 31.0333 10.25 31.4C8.78333 32.7667 8.45 34.4333 9.25 36.4ZM40.5078 26.6C41.5745 26.5333 42.6245 26.4833 43.6578 26.45C44.7245 26.3833 45.8078 26.35 46.9078 26.35V20.45C45.9411 20.5167 44.9578 20.5667 43.9578 20.6C42.9911 20.6333 42.0245 20.6667 41.0578 20.7C40.1245 20.7333 39.2411 20.75 38.4078 20.75C37.5745 20.75 36.8411 20.75 36.2078 20.75C35.4078 20.75 34.7078 20.6 34.1078 20.3C33.5411 19.9667 33.2578 19.45 33.2578 18.75C33.2578 18.25 33.4245 17.8833 33.7578 17.65C34.1245 17.4167 34.5911 17.3 35.1578 17.3C35.4245 17.3 35.7911 17.3333 36.2578 17.4C36.7578 17.4333 37.2078 17.45 37.6078 17.45C38.2078 17.45 38.8411 17.45 39.5078 17.45C40.1745 17.45 40.9078 17.45 41.7078 17.45C42.5411 17.4167 43.4745 17.3833 44.5078 17.35C45.5411 17.3167 46.7245 17.2667 48.0578 17.2C48.8578 17.1667 49.5911 17.15 50.2578 17.15C50.9578 17.1167 51.6078 17.0667 52.2078 17V16.7C52.2078 16.0667 52.1911 15.2833 52.1578 14.35C52.1578 13.3833 52.1411 12.3667 52.1078 11.3C52.0745 10.2333 52.0245 9.15 51.9578 8.05C51.9245 6.91666 51.8745 5.85 51.8078 4.85V4.9C51.4078 4.86667 51.0745 4.85 50.8078 4.85C50.5745 4.81666 50.3245 4.8 50.0578 4.8C49.7911 4.8 49.4745 4.8 49.1078 4.8C48.7411 4.8 48.2578 4.8 47.6578 4.8C46.9245 4.8 46.2411 4.81666 45.6078 4.85C44.9745 4.85 44.3911 4.86667 43.8578 4.9C42.3578 5.03333 40.9745 5.13333 39.7078 5.2C38.4745 5.26667 37.6245 5.31667 37.1578 5.35C35.9245 5.45 35.1411 5.18333 34.8078 4.55C34.5745 4.11666 34.5245 3.65 34.6578 3.15C34.8245 2.65 35.1078 2.31667 35.5078 2.15C35.9078 1.91666 36.3911 1.78333 36.9578 1.75C37.5578 1.68333 38.0578 1.73333 38.4578 1.9C38.7911 1.86667 39.1245 1.86667 39.4578 1.9C39.7911 1.93333 40.1411 1.93333 40.5078 1.9C41.5745 1.86667 42.5245 1.83333 43.3578 1.8C44.2245 1.73333 45.0745 1.68333 45.9078 1.65C46.7745 1.58333 47.6745 1.55 48.6078 1.55C49.5745 1.51666 50.7078 1.51666 52.0078 1.55C52.6745 1.58333 53.2578 1.66667 53.7578 1.8C54.2578 1.93333 54.5911 2.13333 54.7578 2.4C54.8578 2.63333 54.9578 3.13333 55.0578 3.9C55.1578 4.63333 55.2411 5.5 55.3078 6.5C55.4078 7.5 55.4745 8.56666 55.5078 9.7C55.5745 10.8333 55.6078 11.8833 55.6078 12.85C55.6078 13.2833 55.6078 13.7333 55.6078 14.2C55.6078 14.6333 55.6078 15.0333 55.6078 15.4C55.6411 15.7667 55.6578 16.0833 55.6578 16.35C55.6578 16.5833 55.6578 16.7167 55.6578 16.75C56.0245 16.6833 56.3411 16.65 56.6078 16.65C56.8745 16.6167 57.1245 16.5667 57.3578 16.5C57.7911 16.4333 58.2078 16.3833 58.6078 16.35C59.0411 16.2833 59.5078 16.25 60.0078 16.25C60.5745 16.25 61.0411 16.4167 61.4078 16.75C61.8078 17.0833 62.0078 17.4833 62.0078 17.95C62.0078 19.25 61.1578 19.9167 59.4578 19.95C59.2245 19.95 58.9245 19.95 58.5578 19.95C58.1911 19.9167 57.8745 19.8667 57.6078 19.8C56.4411 19.9333 55.2911 20.0333 54.1578 20.1C53.0245 20.1667 51.8245 20.2333 50.5578 20.3C50.6245 21.3 50.6411 22.3 50.6078 23.3C50.5745 24.3 50.5245 25.3167 50.4578 26.35L53.8078 26.5C54.5745 26.5667 55.1578 26.8 55.5578 27.2C55.9911 27.5667 56.2411 28 56.3078 28.5C56.3745 29.1667 56.3578 30.0667 56.2578 31.2C56.1911 32.3 56.0745 33.55 55.9078 34.95C55.8411 35.3833 55.7745 35.8333 55.7078 36.3C55.6745 36.7667 55.6245 37.1833 55.5578 37.55C55.5245 37.9167 55.4911 38.2167 55.4578 38.45C55.4578 38.7167 55.4578 38.8667 55.4578 38.9C55.3911 39.4 55.1911 39.8167 54.8578 40.15C54.5245 40.4833 54.0745 40.6167 53.5078 40.55C52.2745 40.45 51.7078 39.85 51.8078 38.75C51.8745 38.1833 52.0411 37.6833 52.3078 37.25C52.5745 36.0167 52.7411 34.75 52.8078 33.45C52.8745 32.1167 52.9245 30.95 52.9578 29.95C50.3578 29.75 47.7911 29.6833 45.2578 29.75C42.7578 29.8167 40.0578 29.9167 37.1578 30.05C35.9578 30.2167 35.1745 29.9167 34.8078 29.15C34.5745 28.7833 34.5245 28.35 34.6578 27.85C34.8245 27.3167 35.1078 26.9667 35.5078 26.8C35.9078 26.6 36.3911 26.4833 36.9578 26.45C37.5578 26.3833 38.0578 26.4333 38.4578 26.6C38.7911 26.5667 39.1245 26.5667 39.4578 26.6C39.7911 26.6333 40.1411 26.6333 40.5078 26.6ZM74.0656 4.5C74.7656 4 75.6156 3.65 76.6156 3.45C77.649 3.21667 78.599 3.18333 79.4656 3.35C80.5323 3.55 81.5156 3.91666 82.4156 4.45C83.349 4.95 84.1823 5.56667 84.9156 6.3C85.649 7.03333 86.2823 7.85 86.8156 8.75C87.349 9.65 87.7656 10.5833 88.0656 11.55C88.2323 12.2167 88.349 12.7833 88.4156 13.25C88.4823 13.6833 88.5156 14.2667 88.5156 15C89.549 14.9 90.5823 14.7667 91.6156 14.6C92.649 14.4 93.649 14.1833 94.6156 13.95L95.9656 13.6C95.9656 11.7667 95.949 10.05 95.9156 8.45C95.9156 6.81667 95.9156 5.1 95.9156 3.3C95.9156 2.63333 96.0823 2.1 96.4156 1.7C96.749 1.26666 97.249 1.05 97.9156 1.05C99.2156 1.05 99.8656 1.81666 99.8656 3.35C99.8656 5.85 99.8656 8.35 99.8656 10.85C99.899 13.35 99.899 15.9 99.8656 18.5C99.8656 21.1 99.849 23.7833 99.8156 26.55C99.7823 29.2833 99.7156 32.15 99.6156 35.15C99.6156 35.45 99.5823 35.75 99.5156 36.05C99.449 36.35 99.3323 36.6167 99.1656 36.85C99.0323 37.1167 98.8323 37.3333 98.5656 37.5C98.299 37.6667 97.9656 37.75 97.5656 37.75C96.2323 37.75 95.5656 36.9167 95.5656 35.25C95.5656 34.65 95.6156 34.0667 95.7156 33.5C95.849 32.9333 95.949 32.45 96.0156 32.05C96.049 31.25 96.0656 30.5667 96.0656 30C96.099 29.4333 96.1156 28.9 96.1156 28.4C96.149 27.8667 96.1656 27.3167 96.1656 26.75C96.1656 26.1833 96.1656 25.5 96.1656 24.7C96.1656 23.7667 96.1656 22.6167 96.1656 21.25C96.199 19.85 96.199 18.5333 96.1656 17.3C94.899 17.5667 93.6323 17.8333 92.3656 18.1C91.1323 18.3667 89.849 18.55 88.5156 18.65C88.449 20.45 88.1823 22.1667 87.7156 23.8C87.2823 25.4333 86.599 26.9 85.6656 28.2C84.7656 29.5 83.6156 30.5833 82.2156 31.45C80.8156 32.3167 79.149 32.8667 77.2156 33.1C75.6156 33.2667 74.1323 33 72.7656 32.3C71.399 31.6 70.2156 30.6 69.2156 29.3C68.249 27.9667 67.499 26.4 66.9656 24.6C66.4323 22.7667 66.2156 20.8167 66.3156 18.75C66.3823 18.1167 66.4323 17.5333 66.4656 17C66.5323 16.4333 66.649 15.8333 66.8156 15.2C67.1823 13.4 67.649 11.8 68.2156 10.4C68.7823 9 69.449 7.78333 70.2156 6.75C70.5823 6.15 70.9823 5.81667 71.4156 5.75C71.849 5.65 72.249 5.65 72.6156 5.75C72.849 5.48333 73.099 5.25 73.3656 5.05C73.6323 4.85 73.8656 4.66666 74.0656 4.5ZM76.2156 7.45C75.949 7.58333 75.649 7.88333 75.3156 8.35C75.0156 8.78333 74.8156 9.16667 74.7156 9.5C74.6156 9.7 74.4656 9.88333 74.2656 10.05C74.0656 10.2167 73.849 10.35 73.6156 10.45C73.3823 10.55 73.1323 10.6 72.8656 10.6C72.6323 10.6 72.449 10.5 72.3156 10.3C71.9156 11.0333 71.549 11.8667 71.2156 12.8C70.9156 13.7333 70.6323 14.75 70.3656 15.85C70.299 16.3167 70.2323 16.8 70.1656 17.3C70.1323 17.7667 70.099 18.2 70.0656 18.6C69.999 20.2333 70.1323 21.75 70.4656 23.15C70.8323 24.55 71.3323 25.75 71.9656 26.75C72.6323 27.75 73.4156 28.5 74.3156 29C75.2156 29.4667 76.1656 29.6167 77.1656 29.45C78.299 29.2833 79.3323 28.8833 80.2656 28.25C81.199 27.6167 81.9823 26.8 82.6156 25.8C83.2823 24.8 83.7823 23.65 84.1156 22.35C84.4823 21.0167 84.6656 19.5833 84.6656 18.05C84.699 17.65 84.7156 17.2833 84.7156 16.95C84.749 16.5833 84.7656 16.2167 84.7656 15.85C84.7656 15.35 84.749 14.8167 84.7156 14.25C84.6823 13.6833 84.5823 13.1333 84.4156 12.6C84.2156 11.9333 83.9323 11.3 83.5656 10.7C83.2323 10.0667 82.8323 9.5 82.3656 9C81.899 8.5 81.3823 8.06666 80.8156 7.7C80.2823 7.33333 79.7156 7.08333 79.1156 6.95C77.8823 6.75 76.9156 6.91666 76.2156 7.45ZM125.12 5.5C125.02 6.3 124.92 7.26667 124.82 8.4C124.72 9.53333 124.637 10.7167 124.57 11.95C124.503 13.15 124.453 14.3333 124.42 15.5C124.387 16.6333 124.387 17.6167 124.42 18.45C124.42 19.2167 124.503 19.6667 124.67 19.8C124.87 19.9 125.32 19.9167 126.02 19.85L133.57 18.85C134.337 18.75 134.937 18.6833 135.37 18.65C135.803 18.5833 136.337 18.5667 136.97 18.6C138.203 18.6667 138.853 19.1167 138.92 19.95C138.987 20.4167 138.853 20.8167 138.52 21.15C138.22 21.4833 137.787 21.6833 137.22 21.75C135.387 21.9833 133.387 22.2667 131.22 22.6C129.087 22.9333 127.103 23.2333 125.27 23.5C124.003 23.7 123.003 23.6833 122.27 23.45C121.537 23.2167 121.087 22.5 120.92 21.3C120.787 20.3667 120.703 19.25 120.67 17.95C120.637 16.65 120.653 15.2833 120.72 13.85C120.787 12.4167 120.87 10.9833 120.97 9.55C121.103 8.11667 121.253 6.8 121.42 5.6C121.153 5.6 120.903 5.61667 120.67 5.65C120.47 5.65 120.22 5.63333 119.92 5.6C119.453 5.53333 119.037 5.36666 118.67 5.1C118.337 4.8 118.187 4.38333 118.22 3.85C118.22 2.85 118.77 2.26667 119.87 2.1C120.003 2.1 120.203 2.1 120.47 2.1C120.737 2.1 121.003 2.11667 121.27 2.15C121.57 2.15 121.853 2.15 122.12 2.15C122.387 2.15 122.603 2.15 122.77 2.15C123.237 2.15 123.837 2.15 124.57 2.15C125.303 2.11667 126.037 2.1 126.77 2.1C127.537 2.1 128.237 2.1 128.87 2.1C129.537 2.06666 130.053 2.05 130.42 2.05C130.92 2.05 131.57 2.03333 132.37 2C133.17 1.96666 133.77 1.91667 134.17 1.85C135.503 1.71667 136.187 2.1 136.22 3C136.287 4.36666 135.137 5.13333 132.77 5.3C132.403 5.33333 132.003 5.35 131.57 5.35C131.17 5.31667 130.703 5.31667 130.17 5.35L125.12 5.5ZM127.02 39.25C126.287 39.3167 125.703 39.3 125.27 39.2C124.837 39.1 124.503 38.9 124.27 38.6C124.037 38.3 123.887 37.9 123.82 37.4C123.787 36.9 123.787 36.2833 123.82 35.55C123.887 34.5167 123.92 33.6833 123.92 33.05C123.953 32.4167 123.953 31.8167 123.92 31.25C123.887 30.8167 123.803 30.3833 123.67 29.95C123.537 29.4833 123.437 29.05 123.37 28.65C123.303 28.0833 123.403 27.5667 123.67 27.1C123.937 26.6333 124.37 26.35 124.97 26.25C125.637 26.15 126.187 26.3 126.62 26.7C127.087 27.1 127.353 27.7167 127.42 28.55C127.487 29.65 127.537 30.6167 127.57 31.45C127.603 32.2833 127.653 33.1333 127.72 34C127.687 34.4333 127.67 34.7667 127.67 35C127.67 35.2333 127.72 35.4 127.82 35.5C127.92 35.6 128.103 35.65 128.37 35.65C128.637 35.6833 129.003 35.7 129.47 35.7C130.137 35.7 131.087 35.6667 132.32 35.6C133.587 35.5333 134.937 35.4667 136.37 35.4C137.837 35.3333 139.287 35.2833 140.72 35.25C142.187 35.2167 143.453 35.2333 144.52 35.3C144.887 35.3333 145.237 35.3333 145.57 35.3C145.937 35.2667 146.303 35.2833 146.67 35.35C147.337 35.45 147.837 35.7167 148.17 36.15C148.503 36.5833 148.637 37.0667 148.57 37.6C148.503 38.1 148.27 38.5 147.87 38.8C147.47 39.1333 147.003 39.3 146.47 39.3C146.203 39.3 145.903 39.25 145.57 39.15C145.27 39.05 144.987 38.9667 144.72 38.9C143.553 38.8 142.12 38.75 140.42 38.75C138.72 38.7833 137.003 38.8167 135.27 38.85C133.537 38.9167 131.903 38.9833 130.37 39.05C128.87 39.15 127.753 39.2167 127.02 39.25ZM145.72 13.75C145.72 13.95 145.72 14.3667 145.72 15C145.72 15.6 145.72 16.2667 145.72 17C145.753 17.7 145.77 18.3667 145.77 19C145.77 19.6333 145.77 20.0667 145.77 20.3L145.92 22.25C145.987 22.9167 145.853 23.5 145.52 24C145.187 24.4667 144.753 24.7 144.22 24.7C143.553 24.7 143.053 24.5333 142.72 24.2C142.42 23.8667 142.27 23.4833 142.27 23.05C142.27 22.45 142.253 21.6333 142.22 20.6C142.22 19.5333 142.203 18.3667 142.17 17.1C142.17 15.8333 142.153 14.5167 142.12 13.15C142.12 11.75 142.103 10.4167 142.07 9.15C142.07 7.88333 142.053 6.73333 142.02 5.7C142.02 4.66667 142.02 3.85 142.02 3.25C142.02 2.68333 142.203 2.26666 142.57 2C142.937 1.7 143.353 1.55 143.82 1.55C144.787 1.55 145.353 2.13333 145.52 3.3C145.553 3.5 145.57 3.96666 145.57 4.7C145.603 5.4 145.62 6.16667 145.62 7C145.62 7.8 145.62 8.55 145.62 9.25C145.62 9.91667 145.62 10.3167 145.62 10.45C146.253 10.5167 147.003 10.5333 147.87 10.5C148.77 10.4667 149.62 10.4167 150.42 10.35C151.02 10.2833 151.52 10.3667 151.92 10.6C152.32 10.8333 152.553 11.2 152.62 11.7C152.72 12.7667 152.137 13.4 150.87 13.6C149.87 13.7667 148.953 13.8667 148.12 13.9C147.32 13.9 146.52 13.85 145.72 13.75ZM162.493 4.5C163.193 4 164.043 3.65 165.043 3.45C166.077 3.21667 167.027 3.18333 167.893 3.35C168.96 3.55 169.943 3.91666 170.843 4.45C171.777 4.95 172.61 5.56667 173.343 6.3C174.077 7.03333 174.71 7.85 175.243 8.75C175.777 9.65 176.193 10.5833 176.493 11.55C176.66 12.2167 176.777 12.7833 176.843 13.25C176.91 13.6833 176.943 14.2667 176.943 15C177.977 14.9 179.01 14.7667 180.043 14.6C181.077 14.4 182.077 14.1833 183.043 13.95L184.393 13.6C184.393 11.7667 184.377 10.05 184.343 8.45C184.343 6.81667 184.343 5.1 184.343 3.3C184.343 2.63333 184.51 2.1 184.843 1.7C185.177 1.26666 185.677 1.05 186.343 1.05C187.643 1.05 188.293 1.81666 188.293 3.35C188.293 5.85 188.293 8.35 188.293 10.85C188.327 13.35 188.327 15.9 188.293 18.5C188.293 21.1 188.277 23.7833 188.243 26.55C188.21 29.2833 188.143 32.15 188.043 35.15C188.043 35.45 188.01 35.75 187.943 36.05C187.877 36.35 187.76 36.6167 187.593 36.85C187.46 37.1167 187.26 37.3333 186.993 37.5C186.727 37.6667 186.393 37.75 185.993 37.75C184.66 37.75 183.993 36.9167 183.993 35.25C183.993 34.65 184.043 34.0667 184.143 33.5C184.277 32.9333 184.377 32.45 184.443 32.05C184.477 31.25 184.493 30.5667 184.493 30C184.527 29.4333 184.543 28.9 184.543 28.4C184.577 27.8667 184.593 27.3167 184.593 26.75C184.593 26.1833 184.593 25.5 184.593 24.7C184.593 23.7667 184.593 22.6167 184.593 21.25C184.627 19.85 184.627 18.5333 184.593 17.3C183.327 17.5667 182.06 17.8333 180.793 18.1C179.56 18.3667 178.277 18.55 176.943 18.65C176.877 20.45 176.61 22.1667 176.143 23.8C175.71 25.4333 175.027 26.9 174.093 28.2C173.193 29.5 172.043 30.5833 170.643 31.45C169.243 32.3167 167.577 32.8667 165.643 33.1C164.043 33.2667 162.56 33 161.193 32.3C159.827 31.6 158.643 30.6 157.643 29.3C156.677 27.9667 155.927 26.4 155.393 24.6C154.86 22.7667 154.643 20.8167 154.743 18.75C154.81 18.1167 154.86 17.5333 154.893 17C154.96 16.4333 155.077 15.8333 155.243 15.2C155.61 13.4 156.077 11.8 156.643 10.4C157.21 9 157.877 7.78333 158.643 6.75C159.01 6.15 159.41 5.81667 159.843 5.75C160.277 5.65 160.677 5.65 161.043 5.75C161.277 5.48333 161.527 5.25 161.793 5.05C162.06 4.85 162.293 4.66666 162.493 4.5ZM164.643 7.45C164.377 7.58333 164.077 7.88333 163.743 8.35C163.443 8.78333 163.243 9.16667 163.143 9.5C163.043 9.7 162.893 9.88333 162.693 10.05C162.493 10.2167 162.277 10.35 162.043 10.45C161.81 10.55 161.56 10.6 161.293 10.6C161.06 10.6 160.877 10.5 160.743 10.3C160.343 11.0333 159.977 11.8667 159.643 12.8C159.343 13.7333 159.06 14.75 158.793 15.85C158.727 16.3167 158.66 16.8 158.593 17.3C158.56 17.7667 158.527 18.2 158.493 18.6C158.427 20.2333 158.56 21.75 158.893 23.15C159.26 24.55 159.76 25.75 160.393 26.75C161.06 27.75 161.843 28.5 162.743 29C163.643 29.4667 164.593 29.6167 165.593 29.45C166.727 29.2833 167.76 28.8833 168.693 28.25C169.627 27.6167 170.41 26.8 171.043 25.8C171.71 24.8 172.21 23.65 172.543 22.35C172.91 21.0167 173.093 19.5833 173.093 18.05C173.127 17.65 173.143 17.2833 173.143 16.95C173.177 16.5833 173.193 16.2167 173.193 15.85C173.193 15.35 173.177 14.8167 173.143 14.25C173.11 13.6833 173.01 13.1333 172.843 12.6C172.643 11.9333 172.36 11.3 171.993 10.7C171.66 10.0667 171.26 9.5 170.793 9C170.327 8.5 169.81 8.06666 169.243 7.7C168.71 7.33333 168.143 7.08333 167.543 6.95C166.31 6.75 165.343 6.91666 164.643 7.45ZM209.634 25.55C209.934 25.2167 210.401 24.9833 211.034 24.85C211.701 24.7167 212.417 24.65 213.184 24.65C213.984 24.65 214.767 24.7 215.534 24.8C216.301 24.9 216.951 25.0167 217.484 25.15C219.517 25.6833 221.084 26.5167 222.184 27.65C223.284 28.7833 223.801 30.4 223.734 32.5C223.701 33.3667 223.534 34.2 223.234 35C222.967 35.8 222.517 36.5333 221.884 37.2C221.217 37.9 220.417 38.4833 219.484 38.95C218.584 39.4167 217.601 39.7667 216.534 40C215.501 40.2667 214.434 40.4333 213.334 40.5C212.267 40.6 211.251 40.6167 210.284 40.55C209.251 40.4833 208.151 40.3167 206.984 40.05C205.851 39.7833 204.801 39.3667 203.834 38.8C202.867 38.2333 202.051 37.5 201.384 36.6C200.751 35.7 200.417 34.5833 200.384 33.25C200.351 32.35 200.534 31.4667 200.934 30.6C201.334 29.7333 201.884 28.95 202.584 28.25C203.284 27.5167 204.117 26.9 205.084 26.4C206.051 25.9 207.084 25.5667 208.184 25.4C208.484 25.3333 208.734 25.3167 208.934 25.35C209.134 25.3833 209.367 25.45 209.634 25.55ZM192.634 4.3C192.601 3.36666 193.217 2.81666 194.484 2.65C195.284 2.61667 196.317 2.55 197.584 2.45C198.851 2.31666 200.167 2.2 201.534 2.1C202.901 2 204.217 1.91667 205.484 1.85C206.751 1.78333 207.784 1.76666 208.584 1.8C209.251 1.86667 209.717 2.05 209.984 2.35C210.284 2.61667 210.451 2.93333 210.484 3.3C210.484 3.53333 210.451 3.78333 210.384 4.05C210.317 4.28333 210.184 4.53333 209.984 4.8C209.584 5.36666 209.134 5.96666 208.634 6.6C208.167 7.2 207.701 7.8 207.234 8.4C206.767 9 206.317 9.56667 205.884 10.1C205.484 10.6333 205.167 11.0667 204.934 11.4C205.334 11.8667 205.784 12.4 206.284 13C206.784 13.6 207.284 14.2167 207.784 14.85C208.317 15.4833 208.801 16.1 209.234 16.7C209.701 17.3 210.084 17.85 210.384 18.35C210.651 18.8167 210.817 19.25 210.884 19.65C210.984 20.0167 211.051 20.35 211.084 20.65C211.117 21.0833 210.984 21.4667 210.684 21.8C210.384 22.1333 210.001 22.3333 209.534 22.4C209.167 22.4333 208.851 22.3167 208.584 22.05C208.351 21.75 208.101 21.3667 207.834 20.9C207.567 20.4667 207.234 19.9667 206.834 19.4C206.434 18.8 206.001 18.2 205.534 17.6C205.067 16.9667 204.584 16.35 204.084 15.75C203.617 15.1167 203.167 14.55 202.734 14.05C201.901 15.0167 201.151 15.9 200.484 16.7C199.817 17.5 199.067 18.4333 198.234 19.5C198.001 19.8 197.817 20.0667 197.684 20.3C197.551 20.5333 197.451 20.7833 197.384 21.05C197.251 21.5833 196.984 22.0833 196.584 22.55C196.184 22.9833 195.684 23.2167 195.084 23.25C194.651 23.2833 194.267 23.15 193.934 22.85C193.601 22.5167 193.401 22.0667 193.334 21.5C193.267 20.7333 193.501 20 194.034 19.3C195.001 18.0333 196.017 16.75 197.084 15.45C198.184 14.1167 199.251 12.8333 200.284 11.6C201.351 10.3333 202.334 9.13333 203.234 8C204.167 6.86667 204.951 5.86667 205.584 5C205.051 5 204.317 5.03333 203.384 5.1C202.484 5.16667 201.501 5.25 200.434 5.35C199.401 5.41667 198.367 5.5 197.334 5.6C196.334 5.66666 195.484 5.71667 194.784 5.75C194.217 5.75 193.734 5.65 193.334 5.45C192.934 5.21667 192.701 4.83333 192.634 4.3ZM219.034 34.7C219.567 33.9333 219.867 33.2333 219.934 32.6C220.034 31.9667 219.951 31.3833 219.684 30.85C219.451 30.3167 219.051 29.8667 218.484 29.5C217.917 29.1 217.234 28.7667 216.434 28.5C215.967 28.3333 215.467 28.2333 214.934 28.2C214.434 28.1333 213.917 28.1 213.384 28.1C212.784 28.1 212.234 28.1333 211.734 28.2C211.267 28.2667 210.867 28.25 210.534 28.15C209.567 28.25 208.684 28.5 207.884 28.9C206.817 29.4333 205.917 30.05 205.184 30.75C204.484 31.45 204.167 32.3667 204.234 33.5C204.267 34.0667 204.451 34.5667 204.784 35C205.151 35.4667 205.617 35.8667 206.184 36.2C206.784 36.5667 207.451 36.8333 208.184 37C208.917 37.2 209.684 37.3 210.484 37.3C211.284 37.3 212.101 37.2667 212.934 37.2C213.801 37.1333 214.617 37 215.384 36.8C216.184 36.6 216.901 36.3333 217.534 36C218.167 35.6667 218.667 35.2333 219.034 34.7ZM229.484 12.1C229.184 12.0667 228.701 12.0667 228.034 12.1C227.401 12.1 226.734 12.1167 226.034 12.15C225.334 12.1833 224.651 12.2167 223.984 12.25C223.351 12.2833 222.867 12.3 222.534 12.3C222.534 12.5 222.534 12.8333 222.534 13.3C222.534 13.7667 222.534 14.3 222.534 14.9C222.567 15.4667 222.584 16.05 222.584 16.65C222.584 17.2167 222.584 17.7 222.584 18.1C222.584 18.4 222.601 18.8 222.634 19.3C222.701 19.7667 222.734 20.1833 222.734 20.55C222.734 21.2167 222.567 21.8 222.234 22.3C221.901 22.7667 221.467 23 220.934 23C220.267 23 219.751 22.8333 219.384 22.5C219.051 22.1667 218.884 21.7833 218.884 21.35C218.884 20.45 218.867 19.2167 218.834 17.65C218.801 16.0833 218.767 14.4167 218.734 12.65C218.734 10.85 218.717 9.08333 218.684 7.35C218.651 5.61666 218.634 4.11666 218.634 2.85C218.634 2.28333 218.834 1.86667 219.234 1.6C219.634 1.3 220.067 1.15 220.534 1.15C221.001 1.15 221.401 1.3 221.734 1.6C222.101 1.86667 222.301 2.3 222.334 2.9C222.401 3.8 222.434 4.7 222.434 5.6C222.434 6.46666 222.434 7.65 222.434 9.15C222.967 9.11667 223.567 9.06667 224.234 9C224.934 8.93333 225.634 8.88333 226.334 8.85C227.034 8.81667 227.701 8.8 228.334 8.8C229.001 8.76667 229.584 8.78333 230.084 8.85C230.484 8.91666 230.784 9.13333 230.984 9.5C231.217 9.86667 231.334 10.2333 231.334 10.6C231.334 11 231.167 11.3833 230.834 11.75C230.534 12.0833 230.084 12.2 229.484 12.1Z" fill="black"/>
</svg>
